HIERARCHY
ROOT Hips
{
	OFFSET -3.958830 18.904000 13.208200
	CHANNELS 6 Xposition Yposition Zposition Zrotation Yrotation Xrotation 
	JOINT LHipJoint
	{
		OFFSET 0.000000 0.000000 0.000000
		CHANNELS 3 Zrotation Yrotation Xrotation
		JOINT LeftUpLeg
		{
			OFFSET 1.800000 -1.400000 0.085000
			CHANNELS 3 Zrotation Yrotation Xrotation
			JOINT LeftLeg
			{
				OFFSET 2.215000 -6.000000 0.000000
				CHANNELS 3 Zrotation Yrotation Xrotation
				JOINT LeftFoot
				{
					OFFSET 2.500000 -6.900000 0.000000
					CHANNELS 3 Zrotation Yrotation Xrotation
					JOINT LeftToeBase
					{
						OFFSET 0.200000 -0.500000 1.950000
						CHANNELS 3 Zrotation Yrotation Xrotation
						End Site
						{
							OFFSET 0.000000 0.000000 0.000000
						}
					}
				}
			}
		}
	}
	JOINT RHipJoint
	{
		OFFSET 0.000000 0.000000 0.000000
		CHANNELS 3 Zrotation Yrotation Xrotation
		JOINT RightUpLeg
		{
			OFFSET -1.800000 -1.400000 0.085000
			CHANNELS 3 Zrotation Yrotation Xrotation
			JOINT RightLeg
			{
				OFFSET -2.215000 -6.000000 0.000000
				CHANNELS 3 Zrotation Yrotation Xrotation
				JOINT RightFoot
				{
					OFFSET -2.500000 -6.900000 0.000000
					CHANNELS 3 Zrotation Yrotation Xrotation
					JOINT RightToeBase
					{
						OFFSET -0.200000 -0.500000 1.950000
						CHANNELS 3 Zrotation Yrotation Xrotation
						End Site
						{
							OFFSET 0.000000 0.000000 0.000000
						}
					}
				}
			}
		}
	}
	JOINT LowerBack
	{
		OFFSET 0.000000 0.000000 0.000000
		CHANNELS 3 Zrotation Yrotation Xrotation
		JOINT Spine
		{
			OFFSET -0.087000 1.940000 -0.288900
			CHANNELS 3 Zrotation Yrotation Xrotation
			JOINT Spine1
			{
				OFFSET 0.000000 1.950000 0.060000
				CHANNELS 3 Zrotation Yrotation Xrotation
				JOINT Neck
				{
					OFFSET 0.000000 0.000000 0.000000
					CHANNELS 3 Zrotation Yrotation Xrotation
					JOINT Neck1
					{
						OFFSET 0.000000 1.600000 0.340000
						CHANNELS 3 Zrotation Yrotation Xrotation
						JOINT Head
						{
							OFFSET 0.000000 1.667000 -0.240000
							CHANNELS 3 Zrotation Yrotation Xrotation
							End Site
							{
								OFFSET 0.000000 0.000000 0.000000
							}
						}
					}
				}
				JOINT LeftShoulder
				{
					OFFSET 0.000000 0.000000 0.000000
					CHANNELS 3 Zrotation Yrotation Xrotation
					JOINT LeftArm
					{
						OFFSET 2.700000 1.550000 -0.730000
						CHANNELS 3 Zrotation Yrotation Xrotation
						JOINT LeftForeArm
						{
							OFFSET 5.450000 0.000000 0.000000
							CHANNELS 3 Zrotation Yrotation Xrotation
							JOINT LeftHand
							{
								OFFSET 3.450000 0.000000 0.000000
								CHANNELS 3 Zrotation Yrotation Xrotation
								JOINT LeftHandIndex1
								{
									OFFSET 0.750000 0.000000 0.000000
									CHANNELS 3 Zrotation Yrotation Xrotation
									End Site
									{
										OFFSET 0.000000 0.000000 0.000000
									}
								}
							}
						}
					}
				}
				JOINT RightShoulder
				{
					OFFSET 0.000000 0.000000 0.000000
					CHANNELS 3 Zrotation Yrotation Xrotation
					JOINT RightArm
					{
						OFFSET -2.700000 1.550000 -0.730000
						CHANNELS 3 Zrotation Yrotation Xrotation
						JOINT RightForeArm
						{
							OFFSET -5.450000 0.000000 0.000000
							CHANNELS 3 Zrotation Yrotation Xrotation
							JOINT RightHand
							{
								OFFSET -3.450000 0.000000 0.000000
								CHANNELS 3 Zrotation Yrotation Xrotation
								JOINT RightHandIndex1
								{
									OFFSET -0.750000 0.000000 0.000000
									CHANNELS 3 Zrotation Yrotation Xrotation
									End Site
									{
										OFFSET 0.000000 0.000000 0.000000
									}
								}
							}
						}
					}
				}
			}
		}
	}
}
MOTION
Frames: 13
Frame Time: 0.016667
-0.923610 16.431430 -3.832650 6.218456 50.984800 -20.863489 -15.460433 13.823373 2.820201 5.825104 -2.871891 -22.180317 12.622221 3.072630 45.608150 0.038120 7.539249 1.878838 -0.053900 -0.267950 -0.080110 17.693218 -12.817877 1.425183 -22.434139 3.027744 15.673204 -16.320747 -2.776283 53.277472 -1.186475 -9.272590 1.256016 0.084810 0.450940 0.074560 -4.961709 0.133685 -6.965191 12.044576 2.388251 23.276799 -6.367266 5.154925 24.812647 1.307931 -7.335959 -11.045693 -17.076449 2.534040 43.651588 -1.199870 -5.446930 -0.211010 -2.326762 -17.092504 4.401945 17.355045 -12.784688 -5.173916 126.358053 -15.294298 -30.163121 -4.142090 2.832801 0.170120 0.237740 -0.266260 0.025110 0.050250 25.523436 8.026027 -20.752515 22.878702 -10.646284 -127.251013 17.407012 -34.198395 2.354566 -1.590732 -0.345780 0.326120 0.282710 -0.063050 
-0.948950 16.393990 -3.827090 6.959981 51.382054 -21.182311 -15.473168 13.808079 2.852970 5.504454 -3.066062 -21.966880 12.892251 2.976418 46.760534 0.086249 7.705118 1.812004 -0.004620 -0.203470 -0.037310 17.680274 -12.814148 1.434480 -22.362766 3.102316 16.539545 -17.055546 -2.414219 54.063765 -1.263856 -9.383589 1.222694 0.106750 0.402210 0.086310 -4.946276 0.154859 -6.972025 11.686877 2.282849 24.079648 -6.607416 5.245007 25.391896 1.574525 -7.349910 -11.011831 -16.999417 2.395258 43.619182 -1.898730 -5.121900 -1.781980 -2.464964 -17.543225 4.387894 17.776808 -12.626578 -5.538743 126.374010 -15.669926 -31.105317 -4.119616 2.835760 0.186510 0.216070 -0.225170 0.024010 -0.295478 26.070885 8.050573 -21.029198 23.027741 -11.076844 -126.980080 17.768876 -35.062730 2.356496 -1.588679 -0.314500 0.314520 0.254470 -0.071710 
-0.966830 16.304420 -3.818590 7.680514 51.878610 -21.303863 -15.497254 13.732303 2.955561 5.108200 -3.459687 -22.622927 13.350573 2.873438 48.874488 0.210241 7.995117 1.712689 0.078300 -0.054320 -0.020080 17.673151 -12.789112 1.399863 -22.235252 3.168282 16.825142 -18.072271 -1.878490 55.914899 -1.379493 -9.601089 1.171963 0.166060 0.370750 0.089360 -4.868642 0.174612 -6.976020 11.037251 2.524928 24.147092 -6.123487 5.465793 25.843772 1.636632 -6.831538 -10.682818 -15.412748 1.753160 42.351977 -1.203880 -5.149390 -4.057940 -1.966452 -17.569645 4.281980 16.946451 -13.857267 -5.789899 126.697000 -16.112864 -32.881949 -4.076164 2.875708 0.154870 0.201720 -0.185480 0.056960 -0.910329 25.960517 7.738826 -20.529164 24.228736 -11.286243 -126.931939 18.201400 -36.746455 2.336442 -1.615295 -0.249950 0.316350 0.198730 -0.042580 
-0.991360 16.245210 -3.808530 8.600761 52.405956 -21.350351 -15.514207 13.649186 3.002403 4.712823 -3.676134 -22.766626 13.514536 2.887106 50.485924 0.346197 8.185532 1.638789 0.166110 0.102150 -0.033570 17.669441 -12.805266 1.374436 -22.448042 3.333844 17.051608 -18.467832 -1.741024 57.566737 -1.479651 -9.808278 1.118690 0.220880 0.338980 0.108260 -4.878421 0.312889 -6.988651 10.529193 2.748845 24.278123 -5.910389 5.728096 26.239912 1.521048 -5.948469 -10.356347 -13.170326 0.878443 41.382327 1.129530 -5.963120 -5.903940 -2.066831 -18.157821 4.161672 17.065298 -14.477115 -6.157738 127.285782 -16.719266 -34.857094 -4.009123 2.972898 0.112310 0.178380 -0.143710 0.105560 -0.544038 26.123125 7.636188 -19.923722 25.488383 -11.402755 -126.796800 19.545000 -39.543326 2.341660 -1.641734 -0.161740 0.284340 0.137590 0.009870 
-1.015220 16.178570 -3.799120 9.646261 53.241351 -20.837637 -15.532930 13.472278 3.138511 4.568626 -4.167776 -23.803686 12.652082 3.557689 52.757385 0.436960 8.562402 1.504459 0.239930 0.205590 0.010320 17.677959 -12.792579 1.320349 -22.816637 3.491081 17.075670 -18.505499 -1.943885 59.244238 -1.573558 -9.995048 1.052703 0.264240 0.305270 0.124720 -4.889952 0.470115 -7.036801 10.161009 2.956660 24.246231 -5.996762 6.131104 26.147465 1.547060 -5.258589 -9.888387 -11.540297 -0.690675 40.096806 1.610790 -6.862250 -8.725730 -2.252202 -18.242356 3.646129 17.394913 -16.249647 -6.399250 127.040976 -17.582160 -36.424655 -3.962128 2.982770 0.116950 0.151330 -0.095620 0.124300 -0.418798 25.839511 7.487192 -18.665650 26.019886 -11.199744 -127.319924 21.009937 -43.349391 2.318818 -1.633904 -0.118910 0.291330 0.096630 0.025300 
-1.039330 16.108180 -3.795850 10.789548 53.987272 -20.584932 -15.549042 13.323240 3.278514 4.464696 -4.654803 -24.625572 11.444106 4.481421 54.868086 0.510009 8.953300 1.371144 0.289890 0.279670 0.028680 17.684851 -12.744522 1.290811 -23.010918 3.736382 17.929456 -18.756830 -1.977383 60.746247 -1.662899 -10.175858 1.002085 0.304680 0.290000 0.116000 -4.871668 0.519447 -7.080290 9.795140 3.247570 24.648127 -5.848676 6.673493 26.309701 1.375589 -5.074533 -9.587233 -11.079097 -1.334940 39.245519 2.837410 -7.458520 -11.102490 -2.155210 -18.556174 3.345054 17.707105 -18.054378 -6.854998 126.186918 -18.060521 -36.967688 -3.927249 2.963735 0.136790 0.123030 -0.065130 0.143330 -0.298393 26.123144 7.341964 -18.886658 25.780433 -11.796778 -126.644401 21.646389 -44.262795 2.311406 -1.619843 -0.109160 0.322150 0.073190 0.034050 
-1.059060 16.047560 -3.790440 11.727826 54.632507 -20.393320 -15.556516 13.187466 3.415486 4.389846 -5.149851 -25.411024 10.462162 5.282422 56.594615 0.553323 9.330715 1.239597 0.265720 0.233000 0.048810 17.694097 -12.698932 1.275187 -23.233982 3.995815 18.830559 -18.719238 -2.222558 61.878826 -1.690195 -10.327207 0.948994 0.289410 0.279270 0.107300 -4.890733 0.573374 -7.147098 9.782030 3.206298 24.963755 -6.248024 6.904917 26.474626 1.545453 -5.178781 -9.750599 -11.369229 -1.106784 39.781043 1.947560 -7.043190 -10.714160 -2.292792 -19.183417 3.400328 18.274532 -18.205209 -7.249536 125.583205 -17.612040 -35.758287 -3.945878 2.939422 0.155550 0.123630 -0.073930 0.110660 -0.487611 26.804191 7.545356 -19.334337 25.433602 -12.130691 -126.241056 21.859049 -44.217526 2.323873 -1.597443 -0.135220 0.320840 0.092510 0.005600 
-1.081260 16.002090 -3.784900 12.900809 55.086242 -20.008055 -15.561569 13.076446 3.523259 4.260818 -5.606885 -25.650283 9.307526 6.122174 57.874447 0.604753 9.610884 1.142601 0.274710 0.233500 0.074610 17.697007 -12.682101 1.256320 -23.757456 4.196145 19.612878 -18.733842 -2.444975 62.483253 -1.725030 -10.406046 0.920153 0.288090 0.247980 0.099420 -4.894871 0.623613 -7.199944 9.376122 3.095119 25.237745 -6.656995 7.145658 26.621439 1.748850 -5.317799 -9.943967 -11.638619 -1.231334 40.062431 1.650220 -7.095060 -11.450200 -2.417516 -19.924422 3.495061 18.630499 -17.868533 -7.688511 125.546824 -17.119284 -35.130508 -3.924425 2.942964 0.181770 0.100000 -0.057020 0.098470 -0.690380 27.763548 7.805218 -20.065706 25.426216 -12.741804 -126.020474 21.532046 -43.434335 2.351449 -1.583402 -0.138590 0.319790 0.087480 -0.011190 
-1.096640 15.954610 -3.770610 13.607637 55.593615 -19.182967 -15.568293 12.855810 3.666016 4.433235 -6.138852 -26.779954 8.051311 7.098271 59.340260 0.733223 9.930917 1.063943 0.302450 0.294720 0.047500 17.721640 -12.675144 1.210157 -24.079800 4.124356 19.916667 -18.676424 -2.681211 62.553075 -1.744244 -10.459901 0.921641 0.305980 0.271940 0.112130 -4.943858 0.828171 -7.263623 9.205193 3.222873 24.610040 -6.699398 7.505065 26.304699 1.668752 -4.813572 -9.738033 -10.324202 -2.582872 38.623160 2.296650 -8.237480 -11.465760 -2.817582 -20.312221 3.184047 19.288209 -18.902500 -7.891175 125.088081 -17.243502 -34.814742 -3.915464 2.994068 0.126050 0.115500 -0.060680 0.140980 -0.069044 27.968966 7.949073 -20.399915 25.809759 -12.850167 -126.067750 22.029760 -44.053992 2.367625 -1.610507 -0.094940 0.316340 0.059030 0.035170 
-1.112270 15.913850 -3.754530 14.315691 55.852244 -18.615562 -15.570407 12.710619 3.738024 4.793373 -6.377117 -27.337704 6.983208 7.942129 60.175300 0.807276 10.148896 1.001811 0.318850 0.326700 0.042350 17.736405 -12.685531 1.188196 -24.455682 4.148487 20.551382 -18.737689 -2.796722 62.438961 -1.759004 -10.476894 0.923072 0.314270 0.269120 0.110580 -4.988055 0.991003 -7.306671 9.059461 3.435583 24.039094 -6.759911 7.980416 26.290805 1.660500 -4.596896 -9.807914 -9.774926 -3.568118 38.005973 2.694600 -9.117350 -11.905230 -2.913079 -21.032193 3.144414 19.436404 -19.743224 -8.145627 124.458615 -17.418442 -34.803897 -3.893806 3.013948 0.108530 0.108270 -0.054290 0.157170 0.112668 28.729502 8.211814 -20.318728 25.712206 -13.189458 -125.939516 21.883459 -43.891598 2.394627 -1.627176 -0.074010 0.316940 0.042100 0.054490 
-1.130360 15.873420 -3.744240 15.184459 55.683588 -17.744215 -15.562335 12.557888 3.847252 4.982390 -6.749683 -28.033625 5.904489 8.855772 61.202294 0.869985 10.431882 0.912934 0.330330 0.345790 0.041400 17.762309 -12.683623 1.137811 -25.182030 4.290660 20.919056 -18.946932 -2.794754 61.960526 -1.751070 -10.458538 0.927142 0.326930 0.266220 0.108650 -4.989289 1.080025 -7.342592 8.757459 3.608742 23.346373 -6.877022 8.405999 26.128732 1.669232 -4.709242 -9.835522 -9.835985 -3.973666 37.279277 2.738520 -9.495950 -12.269720 -3.088414 -21.452646 3.088741 19.190165 -20.754628 -8.264555 123.573336 -17.780921 -34.877001 -3.887054 3.016167 0.099940 0.106900 -0.055490 0.162010 0.282467 29.341884 8.334917 -20.958823 25.790061 -13.582899 -125.151685 22.059840 -43.319515 2.405741 -1.632927 -0.068030 0.317410 0.036260 0.059680 
-1.153850 15.845160 -3.741870 15.370669 55.750961 -17.518989 -15.560827 12.429183 3.936506 5.173574 -7.122942 -28.695113 5.213848 9.458043 62.084092 0.891976 10.675900 0.835332 0.336600 0.355200 0.050770 17.785920 -12.647361 1.108814 -25.607981 4.273827 21.589484 -18.712300 -3.069631 60.999259 -1.730364 -10.383287 0.943272 0.344920 0.273630 0.100170 -5.006744 1.130388 -7.375329 8.970344 3.712159 22.956772 -6.820105 8.705574 26.205563 1.626499 -4.871402 -9.821632 -9.927143 -3.986850 36.203047 2.979900 -9.372860 -13.230310 -3.091833 -22.007947 3.097041 18.837293 -22.356424 -8.439299 123.295396 -17.511008 -34.502411 -3.898400 2.987535 0.110260 0.106050 -0.056830 0.157370 0.322621 29.943955 8.322983 -21.497024 25.497908 -14.031093 -124.635539 21.977590 -42.779458 2.401980 -1.630032 -0.084810 0.343300 0.042580 0.053510 
-1.182370 15.822780 -3.745440 15.830968 55.841535 -17.106683 -15.558583 12.297708 4.018176 5.116615 -7.523048 -29.221090 4.457950 10.062252 62.734111 0.886711 10.882628 0.764384 0.364820 0.384020 0.083000 17.811595 -12.606444 1.076961 -26.302748 4.401610 22.224805 -18.020871 -3.722968 60.394610 -1.725160 -10.344263 0.942135 0.380240 0.266660 0.090380 -5.024703 1.162041 -7.403429 9.147514 3.908023 22.738669 -6.860260 9.071378 26.492718 1.508129 -5.113402 -9.717390 -10.230580 -4.042488 35.177486 3.003240 -9.185460 -14.823690 -3.014679 -22.680455 2.993792 18.775487 -24.955500 -8.869617 122.524433 -16.824744 -33.171060 -3.908905 2.944138 0.137260 0.095860 -0.046510 0.153900 0.351959 30.666715 8.244475 -21.432739 25.156594 -14.680356 -124.222908 20.655850 -40.826964 2.390458 -1.651042 -0.106050 0.377790 0.041060 0.036300 
